<svg width="392" height="57" viewBox="0 0 392 57" fill="none" xmlns="http://www.w3.org/2000/svg">
<path d="M0 28.5C0 12.7599 12.7599 0 28.5 0H363.5C379.24 0 392 12.7599 392 28.5C392 44.2401 379.24 57 363.5 57H28.5C12.7599 57 0 44.2401 0 28.5Z" fill="black" fill-opacity="0.7"/>
<path d="M320 28.5C320 18.835 327.835 11 337.5 11H364.5C374.165 11 382 18.835 382 28.5C382 38.165 374.165 46 364.5 46H337.5C327.835 46 320 38.165 320 28.5Z" fill="#F5AFB9"/>
<path d="M350.638 28.6772C350.638 29.5828 350.486 30.3742 350.181 31.0513C349.876 31.7241 349.445 32.2383 348.886 32.5938C348.328 32.9492 347.676 33.127 346.931 33.127C346.203 33.127 345.558 32.9492 344.995 32.5938C344.432 32.234 343.994 31.7241 343.681 31.064C343.372 30.3996 343.214 29.6315 343.205 28.7598V28.0933C343.205 27.2046 343.36 26.4196 343.668 25.7383C343.977 25.057 344.413 24.5365 344.976 24.1768C345.543 23.8128 346.191 23.6309 346.918 23.6309C347.659 23.6309 348.311 23.8107 348.874 24.1704C349.441 24.5259 349.876 25.0443 350.181 25.7256C350.486 26.4027 350.638 27.1919 350.638 28.0933V28.6772ZM349.426 28.0806C349.426 26.9845 349.206 26.1445 348.766 25.5605C348.326 24.9723 347.71 24.6782 346.918 24.6782C346.148 24.6782 345.541 24.9723 345.097 25.5605C344.657 26.1445 344.43 26.957 344.417 27.998V28.6772C344.417 29.7394 344.64 30.5752 345.084 31.1846C345.533 31.7897 346.148 32.0923 346.931 32.0923C347.718 32.0923 348.328 31.8066 348.759 31.2354C349.191 30.6598 349.413 29.8368 349.426 28.7661V28.0806ZM354.815 28.7026L353.685 29.877V33H352.466V23.7578H353.685V28.3281L357.792 23.7578H359.265L355.627 27.8394L359.55 33H358.09L354.815 28.7026Z" fill="black"/>
<path d="M138.363 32.2324C138.75 32.2324 139.088 32.1152 139.377 31.8809C139.666 31.6465 139.826 31.3535 139.857 31.002H140.883C140.863 31.3652 140.738 31.7109 140.508 32.0391C140.277 32.3672 139.969 32.6289 139.582 32.8242C139.199 33.0195 138.793 33.1172 138.363 33.1172C137.5 33.1172 136.812 32.8301 136.301 32.2559C135.793 31.6777 135.539 30.8887 135.539 29.8887V29.707C135.539 29.0898 135.652 28.541 135.879 28.0605C136.105 27.5801 136.43 27.207 136.852 26.9414C137.277 26.6758 137.779 26.543 138.357 26.543C139.068 26.543 139.658 26.7559 140.127 27.1816C140.6 27.6074 140.852 28.1602 140.883 28.8398H139.857C139.826 28.4297 139.67 28.0938 139.389 27.832C139.111 27.5664 138.768 27.4336 138.357 27.4336C137.807 27.4336 137.379 27.6328 137.074 28.0312C136.773 28.4258 136.623 28.998 136.623 29.748V29.9531C136.623 30.6836 136.773 31.2461 137.074 31.6406C137.375 32.0352 137.805 32.2324 138.363 32.2324ZM141.814 29.7715C141.814 29.1504 141.936 28.5918 142.178 28.0957C142.424 27.5996 142.764 27.2168 143.197 26.9473C143.635 26.6777 144.133 26.543 144.691 26.543C145.555 26.543 146.252 26.8418 146.783 27.4395C147.318 28.0371 147.586 28.832 147.586 29.8242V29.9004C147.586 30.5176 147.467 31.0723 147.229 31.5645C146.994 32.0527 146.656 32.4336 146.215 32.707C145.777 32.9805 145.273 33.1172 144.703 33.1172C143.844 33.1172 143.146 32.8184 142.611 32.2207C142.08 31.623 141.814 30.832 141.814 29.8477V29.7715ZM142.904 29.9004C142.904 30.6035 143.066 31.168 143.391 31.5938C143.719 32.0195 144.156 32.2324 144.703 32.2324C145.254 32.2324 145.691 32.0176 146.016 31.5879C146.34 31.1543 146.502 30.5488 146.502 29.7715C146.502 29.0762 146.336 28.5137 146.004 28.084C145.676 27.6504 145.238 27.4336 144.691 27.4336C144.156 27.4336 143.725 27.6465 143.396 28.0723C143.068 28.498 142.904 29.1074 142.904 29.9004ZM148.658 29.7715C148.658 29.1504 148.779 28.5918 149.021 28.0957C149.268 27.5996 149.607 27.2168 150.041 26.9473C150.479 26.6777 150.977 26.543 151.535 26.543C152.398 26.543 153.096 26.8418 153.627 27.4395C154.162 28.0371 154.43 28.832 154.43 29.8242V29.9004C154.43 30.5176 154.311 31.0723 154.072 31.5645C153.838 32.0527 153.5 32.4336 153.059 32.707C152.621 32.9805 152.117 33.1172 151.547 33.1172C150.688 33.1172 149.99 32.8184 149.455 32.2207C148.924 31.623 148.658 30.832 148.658 29.8477V29.7715ZM149.748 29.9004C149.748 30.6035 149.91 31.168 150.234 31.5938C150.562 32.0195 151 32.2324 151.547 32.2324C152.098 32.2324 152.535 32.0176 152.859 31.5879C153.184 31.1543 153.346 30.5488 153.346 29.7715C153.346 29.0762 153.18 28.5137 152.848 28.084C152.52 27.6504 152.082 27.4336 151.535 27.4336C151 27.4336 150.568 27.6465 150.24 28.0723C149.912 28.498 149.748 29.1074 149.748 29.9004ZM157.559 30.0645L156.879 30.7734V33H155.795V24H156.879V29.4434L157.459 28.7461L159.434 26.6602H160.752L158.285 29.3086L161.039 33H159.768L157.559 30.0645ZM163.049 33H161.965V26.6602H163.049V33ZM161.877 24.9785C161.877 24.8027 161.93 24.6543 162.035 24.5332C162.145 24.4121 162.305 24.3516 162.516 24.3516C162.727 24.3516 162.887 24.4121 162.996 24.5332C163.105 24.6543 163.16 24.8027 163.16 24.9785C163.16 25.1543 163.105 25.3008 162.996 25.418C162.887 25.5352 162.727 25.5938 162.516 25.5938C162.305 25.5938 162.145 25.5352 162.035 25.418C161.93 25.3008 161.877 25.1543 161.877 24.9785ZM167.42 33.1172C166.561 33.1172 165.861 32.8359 165.322 32.2734C164.783 31.707 164.514 30.9512 164.514 30.0059V29.8066C164.514 29.1777 164.633 28.6172 164.871 28.125C165.113 27.6289 165.449 27.2422 165.879 26.9648C166.312 26.6836 166.781 26.543 167.285 26.543C168.109 26.543 168.75 26.8145 169.207 27.3574C169.664 27.9004 169.893 28.6777 169.893 29.6895V30.1406H165.598C165.613 30.7656 165.795 31.2715 166.143 31.6582C166.494 32.041 166.939 32.2324 167.479 32.2324C167.861 32.2324 168.186 32.1543 168.451 31.998C168.717 31.8418 168.949 31.6348 169.148 31.377L169.811 31.8926C169.279 32.709 168.482 33.1172 167.42 33.1172ZM167.285 27.4336C166.848 27.4336 166.48 27.5938 166.184 27.9141C165.887 28.2305 165.703 28.6758 165.633 29.25H168.809V29.168C168.777 28.6172 168.629 28.1914 168.363 27.8906C168.098 27.5859 167.738 27.4336 167.285 27.4336ZM174.844 31.3184C174.844 31.0254 174.732 30.7988 174.51 30.6387C174.291 30.4746 173.906 30.334 173.355 30.2168C172.809 30.0996 172.373 29.959 172.049 29.7949C171.729 29.6309 171.49 29.4355 171.334 29.209C171.182 28.9824 171.105 28.7129 171.105 28.4004C171.105 27.8809 171.324 27.4414 171.762 27.082C172.203 26.7227 172.766 26.543 173.449 26.543C174.168 26.543 174.75 26.7285 175.195 27.0996C175.645 27.4707 175.869 27.9453 175.869 28.5234H174.779C174.779 28.2266 174.652 27.9707 174.398 27.7559C174.148 27.541 173.832 27.4336 173.449 27.4336C173.055 27.4336 172.746 27.5195 172.523 27.6914C172.301 27.8633 172.189 28.0879 172.189 28.3652C172.189 28.627 172.293 28.8242 172.5 28.957C172.707 29.0898 173.08 29.2168 173.619 29.3379C174.162 29.459 174.602 29.6035 174.938 29.7715C175.273 29.9395 175.521 30.1426 175.682 30.3809C175.846 30.6152 175.928 30.9023 175.928 31.2422C175.928 31.8086 175.701 32.2637 175.248 32.6074C174.795 32.9473 174.207 33.1172 173.484 33.1172C172.977 33.1172 172.527 33.0273 172.137 32.8477C171.746 32.668 171.439 32.418 171.217 32.0977C170.998 31.7734 170.889 31.4238 170.889 31.0488H171.973C171.992 31.4121 172.137 31.7012 172.406 31.916C172.68 32.127 173.039 32.2324 173.484 32.2324C173.895 32.2324 174.223 32.1504 174.469 31.9863C174.719 31.8184 174.844 31.5957 174.844 31.3184Z" fill="white"/>
<path d="M31.5527 29.0098C31.5527 29.8457 31.4121 30.5762 31.1309 31.2012C30.8496 31.8223 30.4512 32.2969 29.9355 32.625C29.4199 32.9531 28.8184 33.1172 28.1309 33.1172C27.459 33.1172 26.8633 32.9531 26.3438 32.625C25.8242 32.293 25.4199 31.8223 25.1309 31.2129C24.8457 30.5996 24.6992 29.8906 24.6914 29.0859V28.4707C24.6914 27.6504 24.834 26.9258 25.1191 26.2969C25.4043 25.668 25.8066 25.1875 26.3262 24.8555C26.8496 24.5195 27.4473 24.3516 28.1191 24.3516C28.8027 24.3516 29.4043 24.5176 29.9238 24.8496C30.4473 25.1777 30.8496 25.6562 31.1309 26.2852C31.4121 26.9102 31.5527 27.6387 31.5527 28.4707V29.0098ZM30.4336 28.459C30.4336 27.4473 30.2305 26.6719 29.8242 26.1328C29.418 25.5898 28.8496 25.3184 28.1191 25.3184C27.4082 25.3184 26.8477 25.5898 26.4375 26.1328C26.0312 26.6719 25.8223 27.4219 25.8105 28.3828V29.0098C25.8105 29.9902 26.0156 30.7617 26.4258 31.3242C26.8398 31.8828 27.4082 32.1621 28.1309 32.1621C28.8574 32.1621 29.4199 31.8984 29.8184 31.3711C30.2168 30.8398 30.4219 30.0801 30.4336 29.0918V28.459ZM36.9844 32.373C36.5625 32.8691 35.9434 33.1172 35.127 33.1172C34.4512 33.1172 33.9355 32.9219 33.5801 32.5312C33.2285 32.1367 33.0508 31.5547 33.0469 30.7852V26.6602H34.1309V30.7559C34.1309 31.7168 34.5215 32.1973 35.3027 32.1973C36.1309 32.1973 36.6816 31.8887 36.9551 31.2715V26.6602H38.0391V33H37.0078L36.9844 32.373ZM42.7559 27.6328C42.5918 27.6055 42.4141 27.5918 42.2227 27.5918C41.5117 27.5918 41.0293 27.8945 40.7754 28.5V33H39.6914V26.6602H40.7461L40.7637 27.3926C41.1191 26.8262 41.623 26.543 42.2754 26.543C42.4863 26.543 42.6465 26.5703 42.7559 26.625V27.6328ZM48.7441 30.3105L48.9082 31.4355L49.1484 30.4219L50.8359 24.4688H51.7852L53.4316 30.4219L53.666 31.4531L53.8477 30.3047L55.1719 24.4688H56.3027L54.2344 33H53.209L51.4512 26.7832L51.3164 26.1328L51.1816 26.7832L49.3594 33H48.334L46.2715 24.4688H47.3965L48.7441 30.3105ZM59.8301 33.1172C58.9707 33.1172 58.2715 32.8359 57.7324 32.2734C57.1934 31.707 56.9238 30.9512 56.9238 30.0059V29.8066C56.9238 29.1777 57.043 28.6172 57.2812 28.125C57.5234 27.6289 57.8594 27.2422 58.2891 26.9648C58.7227 26.6836 59.1914 26.543 59.6953 26.543C60.5195 26.543 61.1602 26.8145 61.6172 27.3574C62.0742 27.9004 62.3027 28.6777 62.3027 29.6895V30.1406H58.0078C58.0234 30.7656 58.2051 31.2715 58.5527 31.6582C58.9043 32.041 59.3496 32.2324 59.8887 32.2324C60.2715 32.2324 60.5957 32.1543 60.8613 31.998C61.127 31.8418 61.3594 31.6348 61.5586 31.377L62.2207 31.8926C61.6895 32.709 60.8926 33.1172 59.8301 33.1172ZM59.6953 27.4336C59.2578 27.4336 58.8906 27.5938 58.5938 27.9141C58.2969 28.2305 58.1133 28.6758 58.043 29.25H61.2188V29.168C61.1875 28.6172 61.0391 28.1914 60.7734 27.8906C60.5078 27.5859 60.1484 27.4336 59.6953 27.4336ZM68.9297 29.9004C68.9297 30.8691 68.707 31.6484 68.2617 32.2383C67.8164 32.8242 67.2188 33.1172 66.4688 33.1172C65.668 33.1172 65.0488 32.834 64.6113 32.2676L64.5586 33H63.5625V24H64.6465V27.3574C65.084 26.8145 65.6875 26.543 66.457 26.543C67.2266 26.543 67.8301 26.834 68.2676 27.416C68.709 27.998 68.9297 28.7949 68.9297 29.8066V29.9004ZM67.8457 29.7773C67.8457 29.0391 67.7031 28.4688 67.418 28.0664C67.1328 27.6641 66.7227 27.4629 66.1875 27.4629C65.4727 27.4629 64.959 27.7949 64.6465 28.459V31.2012C64.9785 31.8652 65.4961 32.1973 66.1992 32.1973C66.7188 32.1973 67.123 31.9961 67.4121 31.5938C67.7012 31.1914 67.8457 30.5859 67.8457 29.7773ZM73.9922 31.3184C73.9922 31.0254 73.8809 30.7988 73.6582 30.6387C73.4395 30.4746 73.0547 30.334 72.5039 30.2168C71.957 30.0996 71.5215 29.959 71.1973 29.7949C70.877 29.6309 70.6387 29.4355 70.4824 29.209C70.3301 28.9824 70.2539 28.7129 70.2539 28.4004C70.2539 27.8809 70.4727 27.4414 70.9102 27.082C71.3516 26.7227 71.9141 26.543 72.5977 26.543C73.3164 26.543 73.8984 26.7285 74.3438 27.0996C74.793 27.4707 75.0176 27.9453 75.0176 28.5234H73.9277C73.9277 28.2266 73.8008 27.9707 73.5469 27.7559C73.2969 27.541 72.9805 27.4336 72.5977 27.4336C72.2031 27.4336 71.8945 27.5195 71.6719 27.6914C71.4492 27.8633 71.3379 28.0879 71.3379 28.3652C71.3379 28.627 71.4414 28.8242 71.6484 28.957C71.8555 29.0898 72.2285 29.2168 72.7676 29.3379C73.3105 29.459 73.75 29.6035 74.0859 29.7715C74.4219 29.9395 74.6699 30.1426 74.8301 30.3809C74.9941 30.6152 75.0762 30.9023 75.0762 31.2422C75.0762 31.8086 74.8496 32.2637 74.3965 32.6074C73.9434 32.9473 73.3555 33.1172 72.6328 33.1172C72.125 33.1172 71.6758 33.0273 71.2852 32.8477C70.8945 32.668 70.5879 32.418 70.3652 32.0977C70.1465 31.7734 70.0371 31.4238 70.0371 31.0488H71.1211C71.1406 31.4121 71.2852 31.7012 71.5547 31.916C71.8281 32.127 72.1875 32.2324 72.6328 32.2324C73.043 32.2324 73.3711 32.1504 73.6172 31.9863C73.8672 31.8184 73.9922 31.5957 73.9922 31.3184ZM77.666 33H76.582V26.6602H77.666V33ZM76.4941 24.9785C76.4941 24.8027 76.5469 24.6543 76.6523 24.5332C76.7617 24.4121 76.9219 24.3516 77.1328 24.3516C77.3438 24.3516 77.5039 24.4121 77.6133 24.5332C77.7227 24.6543 77.7773 24.8027 77.7773 24.9785C77.7773 25.1543 77.7227 25.3008 77.6133 25.418C77.5039 25.5352 77.3438 25.5938 77.1328 25.5938C76.9219 25.5938 76.7617 25.5352 76.6523 25.418C76.5469 25.3008 76.4941 25.1543 76.4941 24.9785ZM80.877 25.125V26.6602H82.0605V27.498H80.877V31.4297C80.877 31.6836 80.9297 31.875 81.0352 32.0039C81.1406 32.1289 81.3203 32.1914 81.5742 32.1914C81.6992 32.1914 81.8711 32.168 82.0898 32.1211V33C81.8047 33.0781 81.5273 33.1172 81.2578 33.1172C80.7734 33.1172 80.4082 32.9707 80.1621 32.6777C79.916 32.3848 79.793 31.9688 79.793 31.4297V27.498H78.6387V26.6602H79.793V25.125H80.877ZM85.9629 33.1172C85.1035 33.1172 84.4043 32.8359 83.8652 32.2734C83.3262 31.707 83.0566 30.9512 83.0566 30.0059V29.8066C83.0566 29.1777 83.1758 28.6172 83.4141 28.125C83.6562 27.6289 83.9922 27.2422 84.4219 26.9648C84.8555 26.6836 85.3242 26.543 85.8281 26.543C86.6523 26.543 87.293 26.8145 87.75 27.3574C88.207 27.9004 88.4355 28.6777 88.4355 29.6895V30.1406H84.1406C84.1562 30.7656 84.3379 31.2715 84.6855 31.6582C85.0371 32.041 85.4824 32.2324 86.0215 32.2324C86.4043 32.2324 86.7285 32.1543 86.9941 31.998C87.2598 31.8418 87.4922 31.6348 87.6914 31.377L88.3535 31.8926C87.8223 32.709 87.0254 33.1172 85.9629 33.1172ZM85.8281 27.4336C85.3906 27.4336 85.0234 27.5938 84.7266 27.9141C84.4297 28.2305 84.2461 28.6758 84.1758 29.25H87.3516V29.168C87.3203 28.6172 87.1719 28.1914 86.9062 27.8906C86.6406 27.5859 86.2812 27.4336 85.8281 27.4336ZM96.5859 32.373C96.1641 32.8691 95.5449 33.1172 94.7285 33.1172C94.0527 33.1172 93.5371 32.9219 93.1816 32.5312C92.8301 32.1367 92.6523 31.5547 92.6484 30.7852V26.6602H93.7324V30.7559C93.7324 31.7168 94.123 32.1973 94.9043 32.1973C95.7324 32.1973 96.2832 31.8887 96.5566 31.2715V26.6602H97.6406V33H96.6094L96.5859 32.373ZM102.984 31.3184C102.984 31.0254 102.873 30.7988 102.65 30.6387C102.432 30.4746 102.047 30.334 101.496 30.2168C100.949 30.0996 100.514 29.959 100.189 29.7949C99.8691 29.6309 99.6309 29.4355 99.4746 29.209C99.3223 28.9824 99.2461 28.7129 99.2461 28.4004C99.2461 27.8809 99.4648 27.4414 99.9023 27.082C100.344 26.7227 100.906 26.543 101.59 26.543C102.309 26.543 102.891 26.7285 103.336 27.0996C103.785 27.4707 104.01 27.9453 104.01 28.5234H102.92C102.92 28.2266 102.793 27.9707 102.539 27.7559C102.289 27.541 101.973 27.4336 101.59 27.4336C101.195 27.4336 100.887 27.5195 100.664 27.6914C100.441 27.8633 100.33 28.0879 100.33 28.3652C100.33 28.627 100.434 28.8242 100.641 28.957C100.848 29.0898 101.221 29.2168 101.76 29.3379C102.303 29.459 102.742 29.6035 103.078 29.7715C103.414 29.9395 103.662 30.1426 103.822 30.3809C103.986 30.6152 104.068 30.9023 104.068 31.2422C104.068 31.8086 103.842 32.2637 103.389 32.6074C102.936 32.9473 102.348 33.1172 101.625 33.1172C101.117 33.1172 100.668 33.0273 100.277 32.8477C99.8867 32.668 99.5801 32.418 99.3574 32.0977C99.1387 31.7734 99.0293 31.4238 99.0293 31.0488H100.113C100.133 31.4121 100.277 31.7012 100.547 31.916C100.82 32.127 101.18 32.2324 101.625 32.2324C102.035 32.2324 102.363 32.1504 102.609 31.9863C102.859 31.8184 102.984 31.5957 102.984 31.3184ZM108.111 33.1172C107.252 33.1172 106.553 32.8359 106.014 32.2734C105.475 31.707 105.205 30.9512 105.205 30.0059V29.8066C105.205 29.1777 105.324 28.6172 105.562 28.125C105.805 27.6289 106.141 27.2422 106.57 26.9648C107.004 26.6836 107.473 26.543 107.977 26.543C108.801 26.543 109.441 26.8145 109.898 27.3574C110.355 27.9004 110.584 28.6777 110.584 29.6895V30.1406H106.289C106.305 30.7656 106.486 31.2715 106.834 31.6582C107.186 32.041 107.631 32.2324 108.17 32.2324C108.553 32.2324 108.877 32.1543 109.143 31.998C109.408 31.8418 109.641 31.6348 109.84 31.377L110.502 31.8926C109.971 32.709 109.174 33.1172 108.111 33.1172ZM107.977 27.4336C107.539 27.4336 107.172 27.5938 106.875 27.9141C106.578 28.2305 106.395 28.6758 106.324 29.25H109.5V29.168C109.469 28.6172 109.32 28.1914 109.055 27.8906C108.789 27.5859 108.43 27.4336 107.977 27.4336Z" fill="white"/>
</svg>
